{
  "source": "C:\\Users\\Peter\\Desktop\\stuff\\MIUN\\quantitative_research\\video_compression\\videos\\BVI-HD\\BVI-HD_CDVL_videos\\ORIG\\BallUnderWater_1920x1080_60fps.mp4",
  "output": "C:\\Users\\Peter\\Desktop\\stuff\\MIUN\\quantitative_research\\video_compression\\compressed_videos\\BVI-HD\\vp9\\2.5\\BallUnderWater_1920x1080_60fps_vp9.webm",
  "codec": "vp9",
  "ok": "Input #0, mov,mp4,m4a,3gp,3g2,mj2, from 'C:\\Users\\Peter\\Desktop\\stuff\\MIUN\\quantitative_research\\video_compression\\videos\\BVI-HD\\BVI-HD_CDVL_videos\\ORIG\\BallUnderWater_1920x1080_60fps.mp4':\n  Metadata:\n    major_brand     : isom\n    minor_version   : 512\n    compatible_brands: isomiso2avc1mp41\n    encoder         : Lavf54.28.101\n  Duration: 00:00:05.00, start: 0.000000, bitrate: 212030 kb/s\n  Stream #0:0[0x1](und): Video: h264 (High 4:4:4 Predictive) (avc1 / 0x31637661), yuv420p(progressive), 1920x1080, 212025 kb/s, 60 fps, 60 tbr, 60 tbn (default)\n    Metadata:\n      handler_name    : VideoHandler\n      vendor_id       : [0][0][0][0]\n[out#0/webm @ 000002eed24b9240] Codec AVOption b:a (set bitrate (in bits/s)) has not been used for any stream. The most likely reason is either wrong type (e.g. a video option with no video streams) or that it is a private option of some decoder which was not actually used for any stream.\nStream mapping:\n  Stream #0:0 -> #0:0 (h264 (native) -> vp9 (libvpx-vp9))\nPress [q] to stop, [?] for help\n[libvpx-vp9 @ 000002eed4214840] v1.15.2-100-g40561f514\nOutput #0, webm, to 'C:\\Users\\Peter\\Desktop\\stuff\\MIUN\\quantitative_research\\video_compression\\compressed_videos\\BVI-HD\\vp9\\2.5\\BallUnderWater_1920x1080_60fps_vp9.webm':\n  Metadata:\n    major_brand     : isom\n    minor_version   : 512\n    compatible_brands: isomiso2avc1mp41\n    encoder         : Lavf62.3.100\n  Stream #0:0(und): Video: vp9, yuv420p(tv, progressive), 1920x1080, q=2-31, 2500 kb/s, 60 fps, 1k tbn (default)\n    Metadata:\n      encoder         : Lavc62.11.100 libvpx-vp9\n      handler_name    : VideoHandler\n      vendor_id       : [0][0][0][0]\n    Side data:\n      cpb: bitrate max/min/avg: 0/0/0 buffer size: 2500000 vbv_delay: N/A\nframe=    0 fps=0.0 q=0.0 size=       0KiB time=N/A bitrate=N/A speed=N/A elapsed=0:00:01.35    \nframe=    0 fps=0.0 q=0.0 size=       0KiB time=N/A bitrate=N/A speed=N/A elapsed=0:00:02.13    \nframe=    0 fps=0.0 q=0.0 size=       0KiB time=N/A bitrate=N/A speed=N/A elapsed=0:00:02.66    \nframe=    2 fps=0.6 q=63.0 size=       1KiB time=00:00:00.03 bitrate= 151.9kbits/s speed=0.0105x elapsed=0:00:03.17    \nframe=    8 fps=2.2 q=49.0 size=       1KiB time=00:00:00.11 bitrate=  43.4kbits/s speed=0.0316x elapsed=0:00:03.69    \nframe=   11 fps=2.6 q=48.0 size=       1KiB time=00:00:00.18 bitrate=  27.6kbits/s speed=0.0431x elapsed=0:00:04.25    \nframe=   13 fps=2.7 q=40.0 size=       1KiB time=00:00:00.21 bitrate=  23.4kbits/s speed=0.0454x elapsed=0:00:04.77    \nframe=   16 fps=3.0 q=47.0 size=       1KiB time=00:00:00.26 bitrate=  19.0kbits/s speed=0.0504x elapsed=0:00:05.29    \nframe=   19 fps=3.2 q=47.0 size=       1KiB time=00:00:00.31 bitrate=  16.0kbits/s speed=0.0542x elapsed=0:00:05.84    \nframe=   23 fps=3.6 q=47.0 size=       1KiB time=00:00:00.38 bitrate=  13.2kbits/s speed=0.0599x elapsed=0:00:06.40    \nframe=   25 fps=3.6 q=32.0 size=       1KiB time=00:00:00.41 bitrate=  12.2kbits/s speed=0.0595x elapsed=0:00:07.00    \nframe=   27 fps=3.6 q=48.0 size=       1KiB time=00:00:00.45 bitrate=  11.3kbits/s speed=0.0599x elapsed=0:00:07.51    \nframe=   30 fps=3.7 q=50.0 size=       1KiB time=00:00:00.50 bitrate=  10.1kbits/s speed=0.0621x elapsed=0:00:08.05    \nframe=   32 fps=3.7 q=51.0 size=       1KiB time=00:00:00.53 bitrate=   9.5kbits/s speed=0.0621x elapsed=0:00:08.59    \nframe=   35 fps=3.8 q=52.0 size=       1KiB time=00:00:00.58 bitrate=   8.7kbits/s speed=0.0638x elapsed=0:00:09.14    \nframe=   38 fps=3.9 q=51.0 size=       1KiB time=00:00:00.63 bitrate=   8.0kbits/s speed=0.0653x elapsed=0:00:09.70    \nframe=   42 fps=4.1 q=51.0 size=       1KiB time=00:00:00.70 bitrate=   7.2kbits/s speed=0.0684x elapsed=0:00:10.22    \nframe=   44 fps=4.1 q=51.0 size=       1KiB time=00:00:00.73 bitrate=   6.9kbits/s speed=0.068x elapsed=0:00:10.78    \nframe=   47 fps=4.2 q=50.0 size=       1KiB time=00:00:00.78 bitrate=   6.5kbits/s speed=0.0693x elapsed=0:00:11.30    \nframe=   50 fps=4.2 q=50.0 size=       1KiB time=00:00:00.83 bitrate=   6.1kbits/s speed=0.0703x elapsed=0:00:11.85    \nframe=   52 fps=4.2 q=49.0 size=       1KiB time=00:00:00.86 bitrate=   5.8kbits/s speed=0.0698x elapsed=0:00:12.41    \nframe=   54 fps=4.2 q=49.0 size=       1KiB time=00:00:00.90 bitrate=   5.6kbits/s speed=0.0696x elapsed=0:00:12.93    \nframe=   58 fps=4.3 q=48.0 size=       1KiB time=00:00:00.96 bitrate=   5.2kbits/s speed=0.0719x elapsed=0:00:13.45    \nframe=   60 fps=4.3 q=48.0 size=       1KiB time=00:00:01.00 bitrate=   5.1kbits/s speed=0.0716x elapsed=0:00:13.97    \nframe=   62 fps=4.3 q=45.0 size=       1KiB time=00:00:01.03 bitrate=   4.9kbits/s speed=0.0713x elapsed=0:00:14.49    \nframe=   65 fps=4.3 q=45.0 size=       1KiB time=00:00:01.08 bitrate=   4.7kbits/s speed=0.0719x elapsed=0:00:15.06    \nframe=   67 fps=4.3 q=45.0 size=       1KiB time=00:00:01.11 bitrate=   4.5kbits/s speed=0.0716x elapsed=0:00:15.58    \nframe=   70 fps=4.3 q=45.0 size=       1KiB time=00:00:01.16 bitrate=   4.3kbits/s speed=0.0724x elapsed=0:00:16.12    \nframe=   73 fps=4.4 q=32.0 size=       1KiB time=00:00:01.21 bitrate=   4.2kbits/s speed=0.0731x elapsed=0:00:16.64    \nframe=   76 fps=4.4 q=46.0 size=       1KiB time=00:00:01.26 bitrate=   4.0kbits/s speed=0.0737x elapsed=0:00:17.19    \nframe=   78 fps=4.4 q=46.0 size=       1KiB time=00:00:01.30 bitrate=   3.9kbits/s speed=0.0733x elapsed=0:00:17.73    \nframe=   81 fps=4.4 q=46.0 size=       1KiB time=00:00:01.35 bitrate=   3.8kbits/s speed=0.0739x elapsed=0:00:18.27    \nframe=   83 fps=4.4 q=45.0 size=       1KiB time=00:00:01.38 bitrate=   3.7kbits/s speed=0.0735x elapsed=0:00:18.81    \nframe=   85 fps=4.4 q=32.0 size=       1KiB time=00:00:01.40 bitrate=   3.6kbits/s speed=0.0724x elapsed=0:00:19.33    \nframe=   87 fps=4.4 q=43.0 size=       1KiB time=00:00:01.45 bitrate=   3.5kbits/s speed=0.073x elapsed=0:00:19.87    \nframe=   91 fps=4.5 q=47.0 size=       1KiB time=00:00:01.50 bitrate=   3.4kbits/s speed=0.0736x elapsed=0:00:20.38    \nframe=   95 fps=4.5 q=47.0 size=       1KiB time=00:00:01.58 bitrate=   3.2kbits/s speed=0.0756x elapsed=0:00:20.93    \nframe=   96 fps=4.5 q=47.0 size=       1KiB time=00:00:01.60 bitrate=   3.2kbits/s speed=0.0746x elapsed=0:00:21.45    \nframe=   99 fps=4.5 q=49.0 size=       1KiB time=00:00:01.65 bitrate=   3.1kbits/s speed=0.0751x elapsed=0:00:21.97    \nframe=  102 fps=4.5 q=49.0 size=       1KiB time=00:00:01.70 bitrate=   3.0kbits/s speed=0.0755x elapsed=0:00:22.51    \nframe=  106 fps=4.6 q=44.0 size=       1KiB time=00:00:01.76 bitrate=   2.9kbits/s speed=0.0766x elapsed=0:00:23.06    \nframe=  109 fps=4.6 q=44.0 size=       1KiB time=00:00:01.81 bitrate=   2.8kbits/s speed=0.0769x elapsed=0:00:23.61    \nframe=  112 fps=4.6 q=45.0 size=       1KiB time=00:00:01.85 bitrate=   2.7kbits/s speed=0.0765x elapsed=0:00:24.18    \nframe=  114 fps=4.6 q=46.0 size=       1KiB time=00:00:01.90 bitrate=   2.7kbits/s speed=0.0766x elapsed=0:00:24.80    \nframe=  116 fps=4.6 q=49.0 size=       1KiB time=00:00:01.93 bitrate=   2.6kbits/s speed=0.0763x elapsed=0:00:25.33    \nframe=  119 fps=4.6 q=48.0 size=       1KiB time=00:00:01.98 bitrate=   2.6kbits/s speed=0.0767x elapsed=0:00:25.85    \nframe=  121 fps=4.6 q=35.0 size=       1KiB time=00:00:02.00 bitrate=   2.5kbits/s speed=0.0758x elapsed=0:00:26.37    \nframe=  123 fps=4.6 q=45.0 size=       1KiB time=00:00:02.05 bitrate=   2.5kbits/s speed=0.076x elapsed=0:00:26.97    \nframe=  126 fps=4.6 q=45.0 size=       1KiB time=00:00:02.10 bitrate=   2.4kbits/s speed=0.0763x elapsed=0:00:27.51    \nframe=  129 fps=4.6 q=33.0 size=       1KiB time=00:00:02.15 bitrate=   2.4kbits/s speed=0.0766x elapsed=0:00:28.05    \nframe=  132 fps=4.6 q=49.0 size=     256KiB time=00:00:02.20 bitrate= 953.3kbits/s speed=0.077x elapsed=0:00:28.56    \nframe=  134 fps=4.6 q=49.0 size=     256KiB time=00:00:02.23 bitrate= 939.0kbits/s speed=0.0768x elapsed=0:00:29.08    \nframe=  137 fps=4.6 q=48.0 size=     256KiB time=00:00:02.28 bitrate= 918.5kbits/s speed=0.0771x elapsed=0:00:29.62    \nframe=  140 fps=4.6 q=47.0 size=     256KiB time=00:00:02.33 bitrate= 898.8kbits/s speed=0.0774x elapsed=0:00:30.12    \nframe=  143 fps=4.7 q=45.0 size=     256KiB time=00:00:02.38 bitrate= 879.9kbits/s speed=0.0778x elapsed=0:00:30.65    \nframe=  146 fps=4.7 q=44.0 size=     256KiB time=00:00:02.43 bitrate= 861.8kbits/s speed=0.0781x elapsed=0:00:31.17    \nframe=  149 fps=4.7 q=45.0 size=     256KiB time=00:00:02.48 bitrate= 844.5kbits/s speed=0.0784x elapsed=0:00:31.69    \nframe=  152 fps=4.7 q=46.0 size=     256KiB time=00:00:02.51 bitrate= 833.3kbits/s speed=0.0781x elapsed=0:00:32.22    \nframe=  154 fps=4.7 q=47.0 size=     256KiB time=00:00:02.56 bitrate= 817.1kbits/s speed=0.0783x elapsed=0:00:32.79    \nframe=  156 fps=4.7 q=46.0 size=     256KiB time=00:00:02.60 bitrate= 806.6kbits/s speed=0.0778x elapsed=0:00:33.41    \nframe=  158 fps=4.7 q=47.0 size=     256KiB time=00:00:02.63 bitrate= 796.4kbits/s speed=0.0776x elapsed=0:00:33.91    \nframe=  160 fps=4.6 q=47.0 size=     256KiB time=00:00:02.66 bitrate= 786.4kbits/s speed=0.0774x elapsed=0:00:34.43    \nframe=  162 fps=4.6 q=47.0 size=     256KiB time=00:00:02.70 bitrate= 776.7kbits/s speed=0.0772x elapsed=0:00:34.95    \nframe=  164 fps=4.6 q=47.0 size=     256KiB time=00:00:02.73 bitrate= 767.3kbits/s speed=0.077x elapsed=0:00:35.49    \nframe=  166 fps=4.6 q=45.0 size=     256KiB time=00:00:02.76 bitrate= 758.0kbits/s speed=0.0768x elapsed=0:00:36.03    \nframe=  169 fps=4.6 q=43.0 size=     256KiB time=00:00:02.81 bitrate= 744.6kbits/s speed=0.0771x elapsed=0:00:36.55    \nframe=  172 fps=4.6 q=43.0 size=     256KiB time=00:00:02.86 bitrate= 731.6kbits/s speed=0.0773x elapsed=0:00:37.07    \nframe=  175 fps=4.7 q=43.0 size=     256KiB time=00:00:02.91 bitrate= 719.0kbits/s speed=0.0775x elapsed=0:00:37.61    \nframe=  177 fps=4.6 q=43.0 size=     256KiB time=00:00:02.95 bitrate= 710.9kbits/s speed=0.0773x elapsed=0:00:38.18    \nframe=  180 fps=4.7 q=41.0 size=     256KiB time=00:00:03.00 bitrate= 699.1kbits/s speed=0.0775x elapsed=0:00:38.70    \nframe=  183 fps=4.7 q=40.0 size=     256KiB time=00:00:03.05 bitrate= 687.6kbits/s speed=0.0777x elapsed=0:00:39.25    \nframe=  186 fps=4.7 q=40.0 size=     256KiB time=00:00:03.10 bitrate= 676.5kbits/s speed=0.0779x elapsed=0:00:39.77    \nframe=  188 fps=4.7 q=28.0 size=     256KiB time=00:00:03.13 bitrate= 669.3kbits/s speed=0.0777x elapsed=0:00:40.30    \nframe=  190 fps=4.7 q=43.0 size=     256KiB time=00:00:03.16 bitrate= 662.3kbits/s speed=0.0775x elapsed=0:00:40.84    \nframe=  193 fps=4.7 q=45.0 size=     256KiB time=00:00:03.21 bitrate= 652.0kbits/s speed=0.0778x elapsed=0:00:41.36    \nframe=  195 fps=4.6 q=46.0 size=     256KiB time=00:00:03.23 bitrate= 648.6kbits/s speed=0.0771x elapsed=0:00:41.94    \nframe=  197 fps=4.6 q=47.0 size=     256KiB time=00:00:03.28 bitrate= 638.7kbits/s speed=0.0773x elapsed=0:00:42.48    \nframe=  200 fps=4.7 q=33.0 size=     256KiB time=00:00:03.31 bitrate= 632.3kbits/s speed=0.0771x elapsed=0:00:43.00    \nframe=  204 fps=4.7 q=47.0 size=     256KiB time=00:00:03.40 bitrate= 616.8kbits/s speed=0.078x elapsed=0:00:43.57    \nframe=  207 fps=4.7 q=47.0 size=     256KiB time=00:00:03.45 bitrate= 607.9kbits/s speed=0.0782x elapsed=0:00:44.09    \nframe=  209 fps=4.7 q=48.0 size=     256KiB time=00:00:03.48 bitrate= 602.1kbits/s speed=0.078x elapsed=0:00:44.64    \nframe=  211 fps=4.7 q=50.0 size=     256KiB time=00:00:03.51 bitrate= 596.3kbits/s speed=0.0779x elapsed=0:00:45.17    \nframe=  212 fps=4.6 q=35.0 size=     256KiB time=00:00:03.53 bitrate= 593.5kbits/s speed=0.0773x elapsed=0:00:45.72    \nframe=  216 fps=4.7 q=52.0 size=     256KiB time=00:00:03.60 bitrate= 582.5kbits/s speed=0.0778x elapsed=0:00:46.26    \nframe=  219 fps=4.7 q=52.0 size=     256KiB time=00:00:03.65 bitrate= 574.6kbits/s speed=0.078x elapsed=0:00:46.78    \nframe=  222 fps=4.7 q=51.0 size=     256KiB time=00:00:03.70 bitrate= 566.8kbits/s speed=0.0782x elapsed=0:00:47.29    \nframe=  223 fps=4.7 q=51.0 size=     256KiB time=00:00:03.71 bitrate= 564.3kbits/s speed=0.0777x elapsed=0:00:47.82    \nframe=  226 fps=4.7 q=50.0 size=     256KiB time=00:00:03.76 bitrate= 556.8kbits/s speed=0.0779x elapsed=0:00:48.32    \nframe=  228 fps=4.7 q=49.0 size=     256KiB time=00:00:03.80 bitrate= 551.9kbits/s speed=0.0778x elapsed=0:00:48.86    \nframe=  232 fps=4.7 q=49.0 size=     256KiB time=00:00:03.86 bitrate= 542.4kbits/s speed=0.0783x elapsed=0:00:49.37    \nframe=  235 fps=4.7 q=48.0 size=     256KiB time=00:00:03.91 bitrate= 535.4kbits/s speed=0.0785x elapsed=0:00:49.92    \nframe=  238 fps=4.7 q=48.0 size=     256KiB time=00:00:03.96 bitrate= 528.7kbits/s speed=0.0786x elapsed=0:00:50.45    \nframe=  241 fps=4.7 q=47.0 size=     256KiB time=00:00:04.00 bitrate= 524.3kbits/s speed=0.0784x elapsed=0:00:50.99    \nframe=  242 fps=4.7 q=34.0 size=     256KiB time=00:00:04.03 bitrate= 520.0kbits/s speed=0.0781x elapsed=0:00:51.61    \nframe=  245 fps=4.7 q=47.0 size=     256KiB time=00:00:04.08 bitrate= 513.6kbits/s speed=0.0783x elapsed=0:00:52.13    \nframe=  247 fps=4.7 q=48.0 size=     256KiB time=00:00:04.11 bitrate= 509.4kbits/s speed=0.0782x elapsed=0:00:52.65    \nframe=  250 fps=4.7 q=46.0 size=     256KiB time=00:00:04.15 bitrate= 505.3kbits/s speed=0.078x elapsed=0:00:53.17    \nframe=  252 fps=4.7 q=46.0 size=     256KiB time=00:00:04.20 bitrate= 499.3kbits/s speed=0.0781x elapsed=0:00:53.77    \nframe=  255 fps=4.7 q=45.0 size=     256KiB time=00:00:04.25 bitrate= 493.4kbits/s speed=0.0783x elapsed=0:00:54.30    \nframe=  256 fps=4.7 q=45.0 size=     256KiB time=00:00:04.26 bitrate= 491.5kbits/s speed=0.0778x elapsed=0:00:54.82    \nframe=  259 fps=4.7 q=46.0 size=    1024KiB time=00:00:04.31 bitrate=1943.3kbits/s speed=0.078x elapsed=0:00:55.36    \nframe=  262 fps=4.7 q=46.0 size=    1024KiB time=00:00:04.36 bitrate=1921.1kbits/s speed=0.0781x elapsed=0:00:55.88    \nframe=  267 fps=4.7 q=43.0 size=    1024KiB time=00:00:04.45 bitrate=1885.1kbits/s speed=0.0789x elapsed=0:00:56.42    \nframe=  270 fps=4.7 q=45.0 size=    1024KiB time=00:00:04.50 bitrate=1864.1kbits/s speed=0.079x elapsed=0:00:56.94    \nframe=  274 fps=4.8 q=47.0 size=    1024KiB time=00:00:04.56 bitrate=1836.9kbits/s speed=0.0795x elapsed=0:00:57.46    \nframe=  276 fps=4.8 q=50.0 size=    1024KiB time=00:00:04.60 bitrate=1823.6kbits/s speed=0.0793x elapsed=0:00:57.99    \nframe=  276 fps=4.7 q=50.0 size=    1024KiB time=00:00:04.60 bitrate=1823.6kbits/s speed=0.0785x elapsed=0:00:58.56    \nframe=  276 fps=4.7 q=50.0 size=    1024KiB time=00:00:04.60 bitrate=1823.6kbits/s speed=0.0779x elapsed=0:00:59.08    \nframe=  276 fps=4.6 q=50.0 size=    1024KiB time=00:00:04.60 bitrate=1823.6kbits/s speed=0.0772x elapsed=0:00:59.60    \nframe=  276 fps=4.6 q=50.0 size=    1024KiB time=00:00:04.60 bitrate=1823.6kbits/s speed=0.0765x elapsed=0:01:00.15    \nframe=  276 fps=4.5 q=50.0 size=    1024KiB time=00:00:04.60 bitrate=1823.6kbits/s speed=0.0758x elapsed=0:01:00.68    \nframe=  276 fps=4.5 q=50.0 size=    1024KiB time=00:00:04.60 bitrate=1823.6kbits/s speed=0.0752x elapsed=0:01:01.20    \nframe=  276 fps=4.5 q=50.0 size=    1024KiB time=00:00:04.60 bitrate=1823.6kbits/s speed=0.0745x elapsed=0:01:01.72    \n[out#0/webm @ 000002eed24b9240] video:1251KiB audio:0KiB subtitle:0KiB other streams:0KiB global headers:0KiB muxing overhead: 0.220561%\nframe=  300 fps=4.8 q=42.0 Lsize=    1254KiB time=00:00:05.00 bitrate=2053.8kbits/s speed=0.0805x elapsed=0:01:02.10    \n",
  "seconds": 63.04049611091614,
  "probe_out": {}
}